<svg width="768" height="842" xmlns="http://www.w3.org/2000/svg" xmlns:xlink="http://www.w3.org/1999/xlink" overflow="hidden"><defs><clipPath id="clip0"><rect x="88" y="-42" width="768" height="842"/></clipPath></defs><g clip-path="url(#clip0)" transform="translate(-88 42)"><rect x="134" y="21" width="678" height="678" fill="#F0DB4F"/><text fill="#323330" font-family="Malgun Gothic,Malgun Gothic_MSFontService,sans-serif" font-weight="700" font-size="400" transform="translate(328.359 472)">}{</text><path d="M434 361C434 340.565 450.565 324 471 324 491.435 324 508 340.565 508 361 508 381.435 491.435 398 471 398 450.565 398 434 381.435 434 361Z" fill="#323330" fill-rule="evenodd"/><path d="M582 201.5C582 191.835 589.835 184 599.5 184 609.165 184 617 191.835 617 201.5 617 211.165 609.165 219 599.5 219 589.835 219 582 211.165 582 201.5Z" fill="#323330" fill-rule="evenodd"/><path d="M327 201.5C327 191.835 334.611 184 344 184 353.389 184 361 191.835 361 201.5 361 211.165 353.389 219 344 219 334.611 219 327 211.165 327 201.5Z" fill="#323330" fill-rule="evenodd"/><path d="M582 520.5C582 510.835 589.835 503 599.5 503 609.165 503 617 510.835 617 520.5 617 530.165 609.165 538 599.5 538 589.835 538 582 530.165 582 520.5Z" fill="#323330" fill-rule="evenodd"/><path d="M327 520.5C327 510.835 334.611 503 344 503 353.389 503 361 510.835 361 520.5 361 530.165 353.389 538 344 538 334.611 538 327 530.165 327 520.5Z" fill="#323330" fill-rule="evenodd"/></g></svg>